<svg id="Layer_1" data-name="Layer 1" xmlns="http://www.w3.org/2000/svg" xmlns:xlink="http://www.w3.org/1999/xlink" viewBox="0 0 240 240"><defs><style>.cls-1{fill:#5e12a0;}.cls-2{fill:url(#radial-gradient);}.cls-3{fill:url(#radial-gradient-2);}.cls-4{fill:#a98698;}.cls-11,.cls-14,.cls-15,.cls-17,.cls-18,.cls-19,.cls-20,.cls-21,.cls-22,.cls-23,.cls-4,.cls-5,.cls-6,.cls-9{isolation:isolate;}.cls-14,.cls-17,.cls-19,.cls-20,.cls-21,.cls-22,.cls-23,.cls-4,.cls-5,.cls-6,.cls-8,.cls-9{opacity:0.6;}.cls-5{fill:url(#linear-gradient);}.cls-6{fill:url(#linear-gradient-2);}.cls-7{fill:url(#linear-gradient-3);}.cls-9{fill:url(#linear-gradient-4);}.cls-10,.cls-11{opacity:0.7;}.cls-11{fill:url(#linear-gradient-5);}.cls-12{fill:url(#linear-gradient-6);}.cls-13,.cls-15,.cls-18{fill:#fff;}.cls-14{fill:url(#linear-gradient-7);}.cls-15{opacity:0.2;}.cls-16{opacity:0.4;}.cls-17{fill:url(#linear-gradient-8);}.cls-18{opacity:0.3;}.cls-19{fill:url(#linear-gradient-9);}.cls-20{fill:url(#linear-gradient-10);}.cls-21{fill:url(#linear-gradient-11);}.cls-22{fill:url(#linear-gradient-12);}.cls-23{fill:url(#linear-gradient-13);}</style><radialGradient id="radial-gradient" cx="-1449.13" cy="1022.35" r="3.53" gradientTransform="matrix(15.6, 0, 0, -15.87, 22802.41, 16272.03)" gradientUnits="userSpaceOnUse"><stop offset="0" stop-color="#ffeaff" stop-opacity="0.6"/><stop offset="0.68" stop-color="#a087c9"/><stop offset="1" stop-color="#10002f"/></radialGradient><radialGradient id="radial-gradient-2" cx="-1514.67" cy="1023.48" r="3.53" gradientTransform="matrix(38.17, 0, 0, -38.82, 57974.9, 39807.77)" xlink:href="#radial-gradient"/><linearGradient id="linear-gradient" x1="109.61" y1="835.36" x2="132.37" y2="973.4" gradientTransform="matrix(1, 0, 0, -1, 0, 1026)" gradientUnits="userSpaceOnUse"><stop offset="0" stop-color="#81ffff"/><stop offset="0.62" stop-color="#fff" stop-opacity="0"/></linearGradient><linearGradient id="linear-gradient-2" x1="170.05" y1="951.25" x2="112.29" y2="899.14" gradientTransform="matrix(1, 0, 0, -1, 0, 1026)" gradientUnits="userSpaceOnUse"><stop offset="0.29" stop-color="#fff"/><stop offset="0.78" stop-color="#fff" stop-opacity="0"/></linearGradient><linearGradient id="linear-gradient-3" x1="55.52" y1="871.77" x2="186.33" y2="871.77" gradientTransform="matrix(1, 0, 0, -1, 0, 1026)" gradientUnits="userSpaceOnUse"><stop offset="0" stop-color="#0002e9"/><stop offset="1" stop-color="#ff00c7"/></linearGradient><linearGradient id="linear-gradient-4" x1="192.83" y1="898.8" x2="120.54" y2="831.64" xlink:href="#linear-gradient-2"/><linearGradient id="linear-gradient-5" x1="55.52" y1="871.77" x2="125.42" y2="871.77" gradientTransform="matrix(1, 0, 0, -1, 0, 1026)" gradientUnits="userSpaceOnUse"><stop offset="0" stop-color="#000292"/><stop offset="1" stop-color="#7d00c7"/></linearGradient><linearGradient id="linear-gradient-6" x1="55.67" y1="898.9" x2="186.21" y2="898.9" gradientTransform="matrix(1, 0, 0, -1, 0, 1026)" gradientUnits="userSpaceOnUse"><stop offset="0" stop-color="#000292"/><stop offset="1" stop-color="#be00c7"/></linearGradient><linearGradient id="linear-gradient-7" x1="184.23" y1="969.98" x2="174.62" y2="954.62" xlink:href="#linear-gradient-2"/><linearGradient id="linear-gradient-8" x1="112.96" y1="855.66" x2="118.17" y2="855.66" xlink:href="#linear-gradient-2"/><linearGradient id="linear-gradient-9" x1="130.91" y1="857.41" x2="136.12" y2="857.41" xlink:href="#linear-gradient-2"/><linearGradient id="linear-gradient-10" x1="122.94" y1="848.36" x2="126.85" y2="848.36" xlink:href="#linear-gradient-2"/><linearGradient id="linear-gradient-11" x1="138.76" y1="850.23" x2="142.67" y2="850.23" xlink:href="#linear-gradient-2"/><linearGradient id="linear-gradient-12" x1="96.14" y1="859.03" x2="104.64" y2="859.03" xlink:href="#linear-gradient-2"/><linearGradient id="linear-gradient-13" x1="146.64" y1="873.18" x2="155.14" y2="873.18" xlink:href="#linear-gradient-2"/></defs><path class="cls-1" d="M202.82,56.4c-1.72-6.63-7.26-13.27-17.23-20.65-8-5.89-16.49-9.26-23.25-9.26a18.83,18.83,0,0,0-3.82.37A11.23,11.23,0,0,0,151,33.12c-2.09,4-2.58,9.39-1.23,12.64a32.33,32.33,0,0,0,1.85,3.38c-6.52,4-10.21,5.13-10.71,5.26a73.17,73.17,0,0,1,40,33.42l.12-1.5a58.87,58.87,0,0,1,3.32-13.77,18.48,18.48,0,0,0,5.17.75A13.18,13.18,0,0,0,200.48,68,13.81,13.81,0,0,0,202.82,56.4Z"/><path class="cls-2" d="M185.1,68.92c11.2,3.13,15.75-5.63,14.27-11.52s-6.76-11.89-15.87-18.65-18.33-9.51-24.24-8.26-7.63,10.39-6.15,13.89A28.26,28.26,0,0,0,156.92,50c-2.34,1.62-4.55,2.88-6.4,4a73.09,73.09,0,0,1,28.55,23.16,62.57,62.57,0,0,1,3.2-9A13,13,0,0,1,185.1,68.92Z"/><path class="cls-3" d="M121,191.59c38,0,68.79-31.33,68.79-70s-30.8-70-68.79-70S52.2,83,52.2,121.62,83,191.59,121,191.59Z"/><path class="cls-4" d="M193.71,51.64c-9.35-10-17.22-12.64-26.7-14.77-7.38-1.75-5.41-6,3.57-5.13-4.31-1.5-8.37-1.88-11.32-1.25-5.91,1.25-7.63,10.39-6.15,13.89A28.26,28.26,0,0,0,156.92,50a93,93,0,0,1-8.49,5.13c1.11.5,2.46,1.13,4.06,2a65.93,65.93,0,0,1,8.74,6c-6.89-6-5.42-8.76,4.06-15.52,3-2.13,8.37-1.88,13.41.75s11,9.26,11,9.26l-5.66,11,1.11.37a13.21,13.21,0,0,0,8.61-.12C196.3,67.29,203.07,61.78,193.71,51.64Z"/><path class="cls-1" d="M166.89,42.88a57,57,0,0,1,9.6,5.39,68.71,68.71,0,0,1,11.32,9.38c-4.31,5.76-7.14,13.65-8.86,19.16.86,1.25,1.84,2.5,2.71,3.75A102,102,0,0,1,186,68.17a7.74,7.74,0,0,0,1.72.12,7,7,0,0,0,4.56-1.37,5.16,5.16,0,0,0,2-4.64c0-2.37-1.85-5.38-5.66-9a89.83,89.83,0,0,0-10.09-8.13c-10.59-7.14-18-9.14-21.29-5.76a6.38,6.38,0,0,0-1.23,7c-3.94,2.63-7.26,4.5-9.48,5.76,1.48.5,2.83,1.12,4.31,1.75A110.38,110.38,0,0,0,166.89,42.88Z"/><path class="cls-1" d="M159.75,42.13c.37-.37,1.35-.62,2.95-.37-1.23,1-2.46,1.87-3.69,2.75A2.48,2.48,0,0,1,159.75,42.13Z"/><path class="cls-1" d="M121,47.51c-40.24,0-72.85,33.18-72.85,74.11s32.61,74.1,72.85,74.1,72.85-33.17,72.85-74.1S161.1,47.51,121,47.51Zm0,144.08c-38,0-68.79-31.29-68.79-70s30.76-70,68.79-70,68.79,31.3,68.79,70S158.89,191.59,121,191.59Z"/><path class="cls-5" d="M121,191.59c38,0,68.79-31.33,68.79-70s-30.8-70-68.79-70S52.2,83,52.2,121.62,83,191.59,121,191.59Z"/><path class="cls-4" d="M120.5,183.08C83,177,57.49,141,63.64,102.84A69.9,69.9,0,0,1,86.53,61.16a69.85,69.85,0,0,0-33.47,49.32c-6,38.18,19.44,74.1,56.85,80.23a67.75,67.75,0,0,0,56-16.14A68,68,0,0,1,120.5,183.08Z"/><path class="cls-6" d="M131.94,52.65a67.67,67.67,0,0,0-48,10l-.49.5A90,90,0,0,1,96.5,57C76.57,68.79,70.41,82.19,70.41,82.19c7.76-15.27,30.52-26,48.36-26.79S148.31,60,162.58,71.67s22.89,35.8,22,54.83S174,160.92,174,160.92c6.76-8.88,10.82-15.39,13.41-22a50,50,0,0,0,1.23-6.13C194.82,94.71,169.47,58.78,131.94,52.65Z"/><path class="cls-7" d="M186.33,121c0,36.68-29.29,66.47-65.34,66.47S55.52,157.67,55.52,121Z"/><g class="cls-8"><path class="cls-9" d="M181.16,121c0,35.8-27.81,65.09-62.76,66.47H121c36.05,0,65.34-29.79,65.34-66.47Z"/></g><g class="cls-10"><path class="cls-11" d="M64.75,121H55.52c0,36.68,29.29,66.47,65.35,66.47,1.59,0,3.07,0,4.55-.13C91.58,184.83,64.75,156,64.75,121Z"/></g><path class="cls-12" d="M186.21,121.62c0-7.64-13.05-12-30.4-13.52-12.55-1-25.22.25-39.74,4.76C103.51,116.61,92.19,116,84,115c-18.34-2.12-28.43-2.37-28.43,6.64,0,13,26.09,29.29,65.22,23.66,19.81-2.88,30-8.77,41.72-12.77C175.13,128.25,186.21,128.38,186.21,121.62Z"/><path class="cls-13" d="M142.4,90.07a11.27,11.27,0,1,0-11.07-11.26A11.17,11.17,0,0,0,142.4,90.07Z"/><path class="cls-13" d="M160.49,98.46a4.76,4.76,0,1,0-4.68-4.76A4.72,4.72,0,0,0,160.49,98.46Z"/><g class="cls-8"><path class="cls-14" d="M177.22,69.8H177A1.49,1.49,0,0,1,175.87,68c1.11-5.75,5.78-11.26,6-11.51a1.36,1.36,0,0,1,2-.13,1.42,1.42,0,0,1,.12,2c-.12.13-4.43,5.26-5.41,10.27A1.33,1.33,0,0,1,177.22,69.8Z"/></g><path class="cls-15" d="M116.44,173.82a3.51,3.51,0,1,0-3.44-3.51A3.48,3.48,0,0,0,116.44,173.82Z"/><g class="cls-16"><path class="cls-17" d="M114.47,172.57a3.59,3.59,0,0,1,0-5c.24-.25.49-.37.73-.63a2.58,2.58,0,0,0-1.23.76,3.59,3.59,0,0,0,0,5,3.51,3.51,0,0,0,4.19.63A3.39,3.39,0,0,1,114.47,172.57Z"/></g><path class="cls-18" d="M117.67,169.31a.75.75,0,1,0-.74-.75A.74.74,0,0,0,117.67,169.31Z"/><path class="cls-15" d="M134.41,172.06a3.51,3.51,0,1,0-3.45-3.5A3.47,3.47,0,0,0,134.41,172.06Z"/><g class="cls-16"><path class="cls-19" d="M132.43,170.81a3.59,3.59,0,0,1,0-5c.25-.25.49-.38.74-.63a2.64,2.64,0,0,0-1.23.75,3.61,3.61,0,0,0,0,5,3.48,3.48,0,0,0,4.18.62A3.38,3.38,0,0,1,132.43,170.81Z"/></g><path class="cls-18" d="M135.63,167.56a.76.76,0,1,0-.74-.75A.75.75,0,0,0,135.63,167.56Z"/><path class="cls-15" d="M125.54,180.2a2.63,2.63,0,1,0-2.58-2.63A2.61,2.61,0,0,0,125.54,180.2Z"/><g class="cls-16"><path class="cls-20" d="M124.06,179.2a2.76,2.76,0,0,1,0-3.75c.13-.13.37-.25.5-.38a2.21,2.21,0,0,0-.86.63,2.74,2.74,0,0,0,0,3.75,2.55,2.55,0,0,0,3.19.38A2.66,2.66,0,0,1,124.06,179.2Z"/></g><path class="cls-18" d="M126.4,176.69a.49.49,0,0,0,.49-.5.49.49,0,1,0-1,0A.49.49,0,0,0,126.4,176.69Z"/><path class="cls-15" d="M141.42,178.32a2.63,2.63,0,1,0-2.59-2.63A2.61,2.61,0,0,0,141.42,178.32Z"/><g class="cls-16"><path class="cls-21" d="M139.94,177.32a2.74,2.74,0,0,1,0-3.75c.12-.13.37-.25.49-.38a2.29,2.29,0,0,0-.86.63,2.76,2.76,0,0,0,0,3.75,2.55,2.55,0,0,0,3.2.38A2.66,2.66,0,0,1,139.94,177.32Z"/></g><path class="cls-18" d="M142.28,174.82a.51.51,0,1,0-.5-.51A.5.5,0,0,0,142.28,174.82Z"/><path class="cls-15" d="M101.79,172.56a5.76,5.76,0,1,0-5.66-5.75A5.7,5.7,0,0,0,101.79,172.56Z"/><g class="cls-16"><path class="cls-22" d="M98.6,170.44a5.81,5.81,0,0,1,0-8.14,4.11,4.11,0,0,1,1.23-.88,6.52,6.52,0,0,0-2,1.25,5.81,5.81,0,0,0,0,8.14,5.53,5.53,0,0,0,6.89.88A5.42,5.42,0,0,1,98.6,170.44Z"/></g><path class="cls-18" d="M103.76,165.05a1.25,1.25,0,1,0-1.23-1.25A1.24,1.24,0,0,0,103.76,165.05Z"/><path class="cls-15" d="M152.37,158.42a5.76,5.76,0,1,0-5.66-5.76A5.71,5.71,0,0,0,152.37,158.42Z"/><g class="cls-16"><path class="cls-23" d="M149.05,156.29a5.81,5.81,0,0,1,0-8.14,4.26,4.26,0,0,1,1.23-.87,6.52,6.52,0,0,0-2,1.25,5.81,5.81,0,0,0,0,8.14,5.53,5.53,0,0,0,6.89.87A5.45,5.45,0,0,1,149.05,156.29Z"/></g><path class="cls-18" d="M154.34,150.91a1.25,1.25,0,1,0-1.23-1.25A1.24,1.24,0,0,0,154.34,150.91Z"/></svg>