<svg id="Layer_1" data-name="Layer 1" xmlns="http://www.w3.org/2000/svg" viewBox="0 0 240 240"><defs><style>.cls-1{fill:#8247e5;}</style></defs><path class="cls-1" d="M163.74,91.36a11.05,11.05,0,0,0-10.78,0l-24.72,14.32L111.44,115,86.72,129.34a11.05,11.05,0,0,1-10.78,0L56.29,118.13a10.71,10.71,0,0,1-5.39-9V87a10.06,10.06,0,0,1,5.39-9l19.34-10.9a11,11,0,0,1,10.77,0L105.74,78a10.71,10.71,0,0,1,5.39,9v14.32l16.79-9.65V77.35a10.06,10.06,0,0,0-5.38-9L86.72,47.77a11.05,11.05,0,0,0-10.78,0L39.49,68.32a10.07,10.07,0,0,0-5.39,9v41.4a10.07,10.07,0,0,0,5.39,9l36.45,20.55a11.05,11.05,0,0,0,10.78,0l24.72-14,16.8-9.65,24.72-14a11.05,11.05,0,0,1,10.78,0l19.34,10.9a10.71,10.71,0,0,1,5.38,9v22.1a10.07,10.07,0,0,1-5.38,9l-19.34,11.21a11.05,11.05,0,0,1-10.78,0L133.63,162a10.71,10.71,0,0,1-5.39-9V138.68l-16.8,9.65v14.32a10,10,0,0,0,5.39,9l36.45,20.55a11.05,11.05,0,0,0,10.78,0l36.45-20.55a10.69,10.69,0,0,0,5.39-9v-41.4a10.07,10.07,0,0,0-5.39-9Z"/></svg>